<?xml version="1.0" encoding="UTF-8" standalone="no"?>
<svg
   xmlns:dc="http://purl.org/dc/elements/1.1/"
   xmlns:cc="http://creativecommons.org/ns#"
   xmlns:rdf="http://www.w3.org/1999/02/22-rdf-syntax-ns#"
   xmlns:svg="http://www.w3.org/2000/svg"
   xmlns="http://www.w3.org/2000/svg"
   xmlns:sodipodi="http://sodipodi.sourceforge.net/DTD/sodipodi-0.dtd"
   xmlns:inkscape="http://www.inkscape.org/namespaces/inkscape"
   inkscape:version="1.0beta1 (32d4812, 2019-09-19)"
   sodipodi:docname="avataaars1.svg"
   xml:space="preserve"
   style="enable-background:new 0 0 264 280;"
   viewBox="0 0 264 280"
   y="0px"
   x="0px"
   id="Layer_1"
   version="1.1"><metadata
   id="metadata800">
  <rdf:RDF>
    <cc:Work
       rdf:about="">
      <dc:format>image/svg+xml</dc:format>
      <dc:type
         rdf:resource="http://purl.org/dc/dcmitype/StillImage" />
    </cc:Work>
  </rdf:RDF>
</metadata>
<defs
   id="defs798" />
<sodipodi:namedview
   inkscape:snap-nodes="false"
   inkscape:current-layer="g793"
   inkscape:window-maximized="0"
   inkscape:window-y="23"
   inkscape:window-x="0"
   inkscape:cy="156.20637"
   inkscape:cx="142.12821"
   inkscape:zoom="2.8284271"
   showgrid="false"
   id="namedview796"
   inkscape:window-height="736"
   inkscape:window-width="1211"
   inkscape:pageshadow="2"
   inkscape:pageopacity="0"
   guidetolerance="10"
   gridtolerance="10"
   objecttolerance="10"
   borderopacity="1"
   inkscape:document-rotation="0"
   bordercolor="#666666"
   pagecolor="#ffffff" />

<style
   id="style619"
   type="text/css">
	.st0{fill-rule:evenodd;clip-rule:evenodd;fill:#E6E6E6;}
	.st1{filter:url(#Adobe_OpacityMaskFilter);}
	.st2{fill-rule:evenodd;clip-rule:evenodd;fill:#FFFFFF;}
	.st3{mask:url(#mask-2_1_);}
	.st4{fill-rule:evenodd;clip-rule:evenodd;fill:#2C3E50;}
	.st5{filter:url(#Adobe_OpacityMaskFilter_1_);}
	.st6{mask:url(#mask-4_1_);}
	.st7{fill-rule:evenodd;clip-rule:evenodd;fill:#D0C6AC;}
	.st8{filter:url(#Adobe_OpacityMaskFilter_2_);}
	.st9{mask:url(#mask-6_1_);}
	.st10{fill-rule:evenodd;clip-rule:evenodd;fill:#EDB98A;}
	.st11{filter:url(#Adobe_OpacityMaskFilter_3_);}
	.st12{mask:url(#mask-6_2_);fill-rule:evenodd;clip-rule:evenodd;fill-opacity:0.1;}
	.st13{filter:url(#Adobe_OpacityMaskFilter_4_);}
	.st14{mask:url(#react-mask-952_1_);}
	.st15{filter:url(#Adobe_OpacityMaskFilter_5_);}
	.st16{opacity:0.6;mask:url(#react-mask-952_2_);}
	.st17{fill-rule:evenodd;clip-rule:evenodd;fill-opacity:0.16;}
	.st18{fill-rule:evenodd;clip-rule:evenodd;fill-opacity:0.7;}
	.st19{filter:url(#Adobe_OpacityMaskFilter_6_);}
	.st20{mask:url(#react-mask-934_1_);fill-rule:evenodd;clip-rule:evenodd;fill:#FFFFFF;}
	.st21{filter:url(#Adobe_OpacityMaskFilter_7_);}
	.st22{mask:url(#react-mask-934_2_);}
	.st23{fill-rule:evenodd;clip-rule:evenodd;fill:#FF4F6D;}
	.st24{fill-rule:evenodd;clip-rule:evenodd;fill-opacity:0.6;}
	.st25{filter:url(#Adobe_OpacityMaskFilter_8_);}
	.st26{mask:url(#react-mask-925_1_);}
	.st27{fill-rule:evenodd;clip-rule:evenodd;fill:#28354B;}
	.st28{filter:url(#Adobe_OpacityMaskFilter_9_);}
	.st29{mask:url(#react-mask-924_1_);}
	.st30{fill-rule:evenodd;clip-rule:evenodd;fill:#4A312C;}
</style>

<desc
   id="desc621">Created with getavataaars.com</desc>

<g
   transform="translate(1.3116109,1.1242379)"
   id="g793">
	
<g
   id="g791"
   transform="translate(-843.72171,-1109.8289)">
		<g
   id="g789"
   transform="translate(841.38149,1110.2969)">
			<g
   transform="translate(12,40)"
   id="Circle">
				<g
   id="Circle-Background">
					<circle
   id="circle623"
   r="120"
   cy="120"
   cx="120"
   class="st0" />

				</g>

				<defs
   id="defs629">
					<filter
   height="240"
   width="240"
   y="0"
   x="0"
   filterUnits="userSpaceOnUse"
   id="Adobe_OpacityMaskFilter">
						<feColorMatrix
   id="feColorMatrix626"
   values="1 0 0 0 0  0 1 0 0 0  0 0 1 0 0  0 0 0 1 0"
   type="matrix" />

					</filter>

				</defs>

				<mask
   id="mask-2_1_"
   height="240"
   width="240"
   y="0"
   x="0"
   maskUnits="userSpaceOnUse">
					<g
   id="g632"
   class="st1">
						<circle
   r="120"
   cy="120"
   cx="120"
   class="st2"
   id="path-1_1_" />

					</g>

				</mask>

				<g
   id="g637"
   mask="url(#mask-2_1_)"
   class="st3">
					<rect
   y="0"
   x="0"
   id="rect635"
   height="240"
   width="240"
   class="st4" />

				</g>

			</g>

			<g
   id="Mask">
			</g>

			<defs
   id="defs644">
				<filter
   height="280"
   width="265"
   y="0"
   x="-1"
   filterUnits="userSpaceOnUse"
   id="Adobe_OpacityMaskFilter_1_">
					<feColorMatrix
   id="feColorMatrix641"
   values="1 0 0 0 0  0 1 0 0 0  0 0 1 0 0  0 0 0 1 0"
   type="matrix" />

				</filter>

			</defs>

			<mask
   id="mask-4_1_"
   height="280"
   width="265"
   y="0"
   x="-1"
   maskUnits="userSpaceOnUse">
				<g
   id="g647"
   class="st5">
					<path
   inkscape:connector-curvature="0"
   d="m 12,160 c 0,66.3 53.7,120 120,120 66.3,0 120,-53.7 120,-120 h 12 V 0 H 0 v 160 z"
   class="st2"
   id="path-3_1_" />

				</g>

			</mask>

			<g
   mask="url(#mask-4_1_)"
   class="st6"
   id="Avataaar">
				<g
   transform="translate(32,36)"
   id="Body">
					<g
   id="g652">
						<path
   inkscape:connector-curvature="0"
   id="path650"
   d="M 124,144.6 V 163 h 4 v 0 c 39.8,0 72,32.2 72,72 v 9 H 0 v -9 c 0,-39.8 32.2,-72 72,-72 v 0 h 4 V 144.6 C 58.8,136.4 46.4,119.7 44.3,99.9 38.5,99.1 34,94.1 34,88 V 74 C 34,68.1 38.3,63.1 44,62.2 V 56 56 C 44,25.1 69.1,0 100,0 v 0 0 c 30.9,0 56,25.1 56,56 v 6.2 c 5.7,1 10,5.9 10,11.8 v 14 c 0,6.1 -4.5,11.1 -10.3,11.9 -2.1,19.8 -14.5,36.5 -31.7,44.7 z"
   class="st7" />

					</g>

					<defs
   id="defs657">
						<filter
   height="244"
   width="264"
   y="0"
   x="-32"
   filterUnits="userSpaceOnUse"
   id="Adobe_OpacityMaskFilter_2_">
							<feColorMatrix
   id="feColorMatrix654"
   values="1 0 0 0 0  0 1 0 0 0  0 0 1 0 0  0 0 0 1 0"
   type="matrix" />

						</filter>

					</defs>

					<mask
   id="mask-6_1_"
   height="244"
   width="264"
   y="0"
   x="-32"
   maskUnits="userSpaceOnUse">
						<g
   id="g660"
   class="st8">
							<path
   inkscape:connector-curvature="0"
   d="M 124,144.6 V 163 h 4 v 0 c 39.8,0 72,32.2 72,72 v 9 H 0 v -9 c 0,-39.8 32.2,-72 72,-72 v 0 h 4 V 144.6 C 58.8,136.4 46.4,119.7 44.3,99.9 38.5,99.1 34,94.1 34,88 V 74 C 34,68.1 38.3,63.1 44,62.2 V 56 56 C 44,25.1 69.1,0 100,0 v 0 0 c 30.9,0 56,25.1 56,56 v 6.2 c 5.7,1 10,5.9 10,11.8 v 14 c 0,6.1 -4.5,11.1 -10.3,11.9 -2.1,19.8 -14.5,36.5 -31.7,44.7 z"
   class="st2"
   id="path-5_1_" />

						</g>

					</mask>

					<g
   id="g666"
   mask="url(#mask-6_1_)"
   class="st9">
						<g
   transform="translate(-32)"
   id="Color">
							<rect
   y="0"
   x="0"
   id="rect663"
   height="244"
   width="264"
   class="st10" />

						</g>

					</g>

					<defs
   id="defs671">
						<filter
   height="79"
   width="112"
   y="79"
   x="44"
   filterUnits="userSpaceOnUse"
   id="Adobe_OpacityMaskFilter_3_">
							<feColorMatrix
   id="feColorMatrix668"
   values="1 0 0 0 0  0 1 0 0 0  0 0 1 0 0  0 0 0 1 0"
   type="matrix" />

						</filter>

					</defs>

					<mask
   id="mask-6_2_"
   height="79"
   width="112"
   y="79"
   x="44"
   maskUnits="userSpaceOnUse">
						<g
   id="g674"
   class="st11">
							<path
   inkscape:connector-curvature="0"
   d="M 124,144.6 V 163 h 4 v 0 c 39.8,0 72,32.2 72,72 v 9 H 0 v -9 c 0,-39.8 32.2,-72 72,-72 v 0 h 4 V 144.6 C 58.8,136.4 46.4,119.7 44.3,99.9 38.5,99.1 34,94.1 34,88 V 74 C 34,68.1 38.3,63.1 44,62.2 V 56 56 C 44,25.1 69.1,0 100,0 v 0 0 c 30.9,0 56,25.1 56,56 v 6.2 c 5.7,1 10,5.9 10,11.8 v 14 c 0,6.1 -4.5,11.1 -10.3,11.9 -2.1,19.8 -14.5,36.5 -31.7,44.7 z"
   class="st2"
   id="path-5_2_" />

						</g>

					</mask>

					<path
   inkscape:connector-curvature="0"
   mask="url(#mask-6_2_)"
   d="m 156,79 v 23 c 0,30.9 -25.1,56 -56,56 -30.9,0 -56,-25.1 -56,-56 V 79 94 c 0,30.9 25.1,56 56,56 30.9,0 56,-25.1 56,-56 z"
   class="st12"
   id="Neck-Shadow" />

				</g>

				<g
   id="g709"
   transform="translate(0,170)">
					<g
   id="Clothes">
						<path
   inkscape:connector-curvature="0"
   id="path679"
   d="m 166,29.3 c 37,3 66,34 66,71.8 V 110 H 32 v -8.9 C 32,63 61.6,31.8 99,29.2 c 0,0.4 0,0.7 0,1.1 0,11.9 15,21.5 33.5,21.5 18.5,0 33.5,-9.6 33.5,-21.5 0,-0.3 0,-0.7 0,-1 z"
   class="st0" />

					</g>

					<defs
   id="defs685">
						<filter
   height="110"
   width="264"
   y="0"
   x="0"
   filterUnits="userSpaceOnUse"
   id="Adobe_OpacityMaskFilter_4_">
							<feColorMatrix
   id="feColorMatrix682"
   values="1 0 0 0 0  0 1 0 0 0  0 0 1 0 0  0 0 0 1 0"
   type="matrix" />

						</filter>

					</defs>

					<mask
   id="react-mask-952_1_"
   height="110"
   width="264"
   y="0"
   x="0"
   maskUnits="userSpaceOnUse">
						<g
   id="g688"
   class="st13">
							<path
   inkscape:connector-curvature="0"
   d="m 166,29.3 c 37,3 66,34 66,71.8 V 110 H 32 v -8.9 C 32,63 61.6,31.8 99,29.2 c 0,0.4 0,0.7 0,1.1 0,11.9 15,21.5 33.5,21.5 18.5,0 33.5,-9.6 33.5,-21.5 0,-0.3 0,-0.7 0,-1 z"
   class="st2"
   id="react-path-951_1_" />

						</g>

					</mask>

					<g
   id="g693"
   mask="url(#react-mask-952_1_)"
   class="st14">
						<rect
   y="0"
   x="0"
   id="rect691"
   height="110"
   width="264"
   class="st2" />

					</g>

					<defs
   id="defs698">
						<filter
   height="53.799999"
   width="79.300003"
   y="4.9000001"
   x="92.900002"
   filterUnits="userSpaceOnUse"
   id="Adobe_OpacityMaskFilter_5_">
							<feColorMatrix
   id="feColorMatrix695"
   values="1 0 0 0 0  0 1 0 0 0  0 0 1 0 0  0 0 0 1 0"
   type="matrix" />

						</filter>

					</defs>

					<mask
   id="react-mask-952_2_"
   height="53.8"
   width="79.3"
   y="4.9"
   x="92.9"
   maskUnits="userSpaceOnUse">
						<g
   id="g701"
   class="st15">
							<path
   inkscape:connector-curvature="0"
   d="m 166,29.3 c 37,3 66,34 66,71.8 V 110 H 32 v -8.9 C 32,63 61.6,31.8 99,29.2 c 0,0.4 0,0.7 0,1.1 0,11.9 15,21.5 33.5,21.5 18.5,0 33.5,-9.6 33.5,-21.5 0,-0.3 0,-0.7 0,-1 z"
   class="st2"
   id="react-path-951_2_" />

						</g>

					</mask>

					<g
   mask="url(#react-mask-952_2_)"
   class="st16"
   id="Shadowy">
						<g
   id="g706"
   transform="translate(92,4)">
							<ellipse
   id="ellipse704"
   ry="26.9"
   rx="39.599998"
   cy="27.799999"
   cx="40.5"
   class="st17" />

						</g>

					</g>

				</g>

				<g
   transform="translate(76,82)"
   id="Face">
					<g
   id="g740"
   transform="translate(2,52)">
						<g
   id="Mouth">
							<path
   inkscape:connector-curvature="0"
   id="path711"
   d="M 35.1,15.1 C 36.2,24.6 44.2,32 54,32 c 9.8,0 17.9,-7.4 18.9,-17 0.1,-0.8 -0.8,-2 -1.8,-2 -14.9,0 -26.3,0 -34,0 -1.1,0 -2.1,1.2 -2,2.1 z"
   class="st18" />

						</g>

						<defs
   id="defs717">
							<filter
   height="16"
   width="31"
   y="2"
   x="39"
   filterUnits="userSpaceOnUse"
   id="Adobe_OpacityMaskFilter_6_">
								<feColorMatrix
   id="feColorMatrix714"
   values="1 0 0 0 0  0 1 0 0 0  0 0 1 0 0  0 0 0 1 0"
   type="matrix" />

							</filter>

						</defs>

						<mask
   id="react-mask-934_1_"
   height="16"
   width="31"
   y="2"
   x="39"
   maskUnits="userSpaceOnUse">
							<g
   id="g720"
   class="st19">
								<path
   inkscape:connector-curvature="0"
   d="M 35.1,15.1 C 36.2,24.6 44.2,32 54,32 c 9.8,0 17.9,-7.4 18.9,-17 0.1,-0.8 -0.8,-2 -1.8,-2 -14.9,0 -26.3,0 -34,0 -1.1,0 -2.1,1.2 -2,2.1 z"
   class="st2"
   id="react-path-933_1_" />

							</g>

						</mask>

						<path
   inkscape:connector-curvature="0"
   mask="url(#react-mask-934_1_)"
   d="m 44,2 h 21 c 2.8,0 5,2.2 5,5 v 6 c 0,2.8 -2.2,5 -5,5 H 44 c -2.8,0 -5,-2.2 -5,-5 V 7 c 0,-2.8 2.2,-5 5,-5 z"
   class="st20"
   id="Teeth" />

						<defs
   id="defs727">
							<filter
   height="22"
   width="32"
   y="24"
   x="38"
   filterUnits="userSpaceOnUse"
   id="Adobe_OpacityMaskFilter_7_">
								<feColorMatrix
   id="feColorMatrix724"
   values="1 0 0 0 0  0 1 0 0 0  0 0 1 0 0  0 0 0 1 0"
   type="matrix" />

							</filter>

						</defs>

						<mask
   id="react-mask-934_2_"
   height="22"
   width="32"
   y="24"
   x="38"
   maskUnits="userSpaceOnUse">
							<g
   id="g730"
   class="st21">
								<path
   inkscape:connector-curvature="0"
   d="M 35.1,15.1 C 36.2,24.6 44.2,32 54,32 c 9.8,0 17.9,-7.4 18.9,-17 0.1,-0.8 -0.8,-2 -1.8,-2 -14.9,0 -26.3,0 -34,0 -1.1,0 -2.1,1.2 -2,2.1 z"
   class="st2"
   id="react-path-933_2_" />

							</g>

						</mask>

						<g
   mask="url(#react-mask-934_2_)"
   class="st22"
   id="Tongue">
							<g
   id="g737"
   transform="translate(38,24)">
								<circle
   id="circle733"
   r="11"
   cy="11"
   cx="11"
   class="st23" />

								<circle
   id="circle735"
   r="11"
   cy="11"
   cx="21"
   class="st23" />

							</g>

						</g>

					</g>

					<g
   id="g743"
   transform="translate(28,40)">
						<path
   inkscape:connector-curvature="0"
   d="m 16,8 c 0,4.4 5.4,8 12,8 v 0 c 6.6,0 12,-3.6 12,-8"
   class="st17"
   id="Nose" />

					</g>

					<g
   id="g748"
   transform="translate(0,8)">
						<path
   inkscape:connector-curvature="0"
   d="M 16.2,22.4 C 18,18.6 22.2,16 27,16 c 4.8,0 9,2.6 10.8,6.4 0.6,1.1 -0.2,2 -1,1.4 -2.5,-2.1 -5.9,-3.4 -9.8,-3.4 -3.7,0 -7.1,1.2 -9.6,3.2 -0.9,0.7 -1.8,0 -1.2,-1.2 z"
   class="st24"
   id="Squint" />

						<path
   inkscape:connector-curvature="0"
   id="path746"
   d="M 74.2,22.4 C 76,18.6 80.2,16 85,16 c 4.8,0 9,2.6 10.8,6.4 0.6,1.1 -0.2,2 -1,1.4 -2.5,-2.1 -5.9,-3.4 -9.8,-3.4 -3.7,0 -7.1,1.2 -9.6,3.2 -0.9,0.7 -1.8,0 -1.2,-1.2 z"
   class="st24" />

					</g>

					<g
   id="g753">
						<path
   inkscape:connector-curvature="0"
   d="m 26.5,6.1 c -5.8,0.3 -15.2,4.5 -15,10.3 0,0.2 0.3,0.3 0.4,0.1 2.8,-3 22.3,-5.9 29.2,-4.4 0.6,0.1 1.1,-0.5 0.7,-0.9 C 38.5,7.5 31.7,5.9 26.5,6.1"
   class="st24"
   id="Eyebrow" />

						<path
   inkscape:connector-curvature="0"
   id="path751"
   d="m 86.5,6.1 c 5.8,0.3 15.2,4.5 15,10.3 0,0.2 -0.3,0.3 -0.4,0.1 -2.8,-3 -22.3,-5.9 -29.2,-4.4 -0.6,0.1 -1.1,-0.5 -0.7,-0.9 3.3,-3.7 10.1,-5.3 15.3,-5.1"
   class="st24" />

					</g>

				</g>

				<g
   id="Top">
					<defs
   id="defs759">
						<filter
   height="280"
   width="264"
   y="0"
   x="-1"
   filterUnits="userSpaceOnUse"
   id="Adobe_OpacityMaskFilter_8_">
							<feColorMatrix
   id="feColorMatrix756"
   values="1 0 0 0 0  0 1 0 0 0  0 0 1 0 0  0 0 0 1 0"
   type="matrix" />

						</filter>

					</defs>

					<mask
   id="react-mask-925_1_"
   height="280"
   width="264"
   y="0"
   x="-1"
   maskUnits="userSpaceOnUse">
						<g
   id="g762"
   class="st25">
							<rect
   y="0"
   x="0"
   height="280"
   width="264"
   class="st2"
   id="react-path-927_1_" />

						</g>

					</mask>

					<g
   id="g785"
   mask="url(#react-mask-925_1_)"
   class="st26">
						<g
   id="g783"
   transform="translate(-1)">
							<g
   id="Short-Hair">
								<path
   inkscape:connector-curvature="0"
   id="path765"
   d="m 183.7,38.9 c 5.4,-5 6.7,-15 3.6,-21.5 -3.8,-8 -11.4,-9 -18.7,-5.5 -6.9,3.3 -13.1,4.4 -20.6,2.8 C 140.7,13.2 133.9,10.4 126.4,10 114,9.3 102,13.9 93.6,23.1 c -1.6,1.8 -2.9,3.8 -4.1,5.8 -1,1.6 -2.1,3.4 -2.5,5.3 -0.2,0.9 0.2,3.1 -0.3,3.8 -0.5,0.8 -2.3,1.5 -3.1,2.1 -1.6,1.2 -2.9,2.5 -4.2,4 -2.7,3.2 -4.1,6.6 -5.4,10.6 -4.1,13.2 -4.5,29 0.9,42 0.7,1.7 2.9,5.4 4.2,1.6 0.3,-0.7 -0.3,-3.2 -0.3,-3.9 0,-2.7 1.5,-20.7 8,-30.8 2.1,-3.3 12,-15.6 14,-15.7 1.1,1.7 11.9,12.5 39.9,11.2 12.7,-0.6 22.4,-6.3 24.7,-8.7 1,5.5 13,13.8 14.8,17.2 5.3,9.8 6.4,30.3 8.4,30.3 2,0 3.5,-5.2 3.9,-6.2 3.1,-7.4 3.6,-16.6 3.3,-24.6 C 195.5,57 191.3,45.9 183.7,38.9 Z"
   class="st27" />

							</g>

							<defs
   id="defs771">
								<filter
   height="280"
   width="264"
   y="0"
   x="0"
   filterUnits="userSpaceOnUse"
   id="Adobe_OpacityMaskFilter_9_">
									<feColorMatrix
   id="feColorMatrix768"
   values="1 0 0 0 0  0 1 0 0 0  0 0 1 0 0  0 0 0 1 0"
   type="matrix" />

								</filter>

							</defs>

							<mask
   id="react-mask-924_1_"
   height="280"
   width="264"
   y="0"
   x="0"
   maskUnits="userSpaceOnUse">
								<g
   id="g774"
   class="st28">
									<path
   inkscape:connector-curvature="0"
   d="m 183.7,38.9 c 5.4,-5 6.7,-15 3.6,-21.5 -3.8,-8 -11.4,-9 -18.7,-5.5 -6.9,3.3 -13.1,4.4 -20.6,2.8 C 140.7,13.2 133.9,10.4 126.4,10 114,9.3 102,13.9 93.6,23.1 c -1.6,1.8 -2.9,3.8 -4.1,5.8 -1,1.6 -2.1,3.4 -2.5,5.3 -0.2,0.9 0.2,3.1 -0.3,3.8 -0.5,0.8 -2.3,1.5 -3.1,2.1 -1.6,1.2 -2.9,2.5 -4.2,4 -2.7,3.2 -4.1,6.6 -5.4,10.6 -4.1,13.2 -4.5,29 0.9,42 0.7,1.7 2.9,5.4 4.2,1.6 0.3,-0.7 -0.3,-3.2 -0.3,-3.9 0,-2.7 1.5,-20.7 8,-30.8 2.1,-3.3 12,-15.6 14,-15.7 1.1,1.7 11.9,12.5 39.9,11.2 12.7,-0.6 22.4,-6.3 24.7,-8.7 1,5.5 13,13.8 14.8,17.2 5.3,9.8 6.4,30.3 8.4,30.3 2,0 3.5,-5.2 3.9,-6.2 3.1,-7.4 3.6,-16.6 3.3,-24.6 C 195.5,57 191.3,45.9 183.7,38.9 Z"
   class="st2"
   id="react-path-926_1_" />

								</g>

							</mask>

							<g
   id="g781"
   mask="url(#react-mask-924_1_)"
   class="st29">
								<g
   id="g779">
									<rect
   y="0"
   x="0"
   id="rect777"
   height="280"
   width="264"
   class="st30" />

								</g>

							</g>

						</g>

					</g>

				</g>

			</g>

		</g>

	</g>
<ellipse
   ry="120.28693"
   rx="119.58486"
   cy="160.81847"
   cx="129.50626"
   id="path1853"
   style="fill:#a02c2c;fill-opacity:0.6;stroke-width:1.43833;opacity:0;stroke:#000000" />
</g>

</svg>
