<?xml version="1.0" encoding="UTF-8" standalone="no"?>
<svg
   xmlns:osb="http://www.openswatchbook.org/uri/2009/osb"
   xmlns:dc="http://purl.org/dc/elements/1.1/"
   xmlns:cc="http://creativecommons.org/ns#"
   xmlns:rdf="http://www.w3.org/1999/02/22-rdf-syntax-ns#"
   xmlns:svg="http://www.w3.org/2000/svg"
   xmlns="http://www.w3.org/2000/svg"
   xmlns:xlink="http://www.w3.org/1999/xlink"
   xmlns:sodipodi="http://sodipodi.sourceforge.net/DTD/sodipodi-0.dtd"
   xmlns:inkscape="http://www.inkscape.org/namespaces/inkscape"
   inkscape:version="1.0beta1 (32d4812, 2019-09-19)"
   sodipodi:docname="avataaars1.svg"
   xml:space="preserve"
   style="enable-background:new 0 0 264 280;"
   viewBox="0 0 264 280"
   y="0px"
   x="0px"
   id="Layer_1"
   version="1.1"><metadata
   id="metadata800">
  <rdf:RDF>
    <cc:Work
       rdf:about="">
      <dc:format>image/svg+xml</dc:format>
      <dc:type
         rdf:resource="http://purl.org/dc/dcmitype/StillImage" />
      <dc:title></dc:title>
    </cc:Work>
  </rdf:RDF>
</metadata>
<defs
   id="defs798"><linearGradient
   osb:paint="solid"
   id="linearGradient3904">
  <stop
     id="stop3902"
     offset="0"
     style="stop-color:#000000;stop-opacity:1;" />
</linearGradient>
<linearGradient
   osb:paint="solid"
   id="linearGradient1905">
  <stop
     id="stop1903"
     offset="0"
     style="stop-color:#000000;stop-opacity:1;" />
</linearGradient>
<linearGradient
   gradientTransform="matrix(1.0006448,0,0,1.0178359,2.4857094,-9.698384)"
   gradientUnits="userSpaceOnUse"
   y2="167.52072"
   x2="251.32659"
   y1="167.52072"
   x1="10.861646"
   id="linearGradient3906"
   xlink:href="#linearGradient3904"
   inkscape:collect="always" />

		
	</defs>
<sodipodi:namedview
   inkscape:snap-nodes="false"
   inkscape:current-layer="g793"
   inkscape:window-maximized="0"
   inkscape:window-y="0"
   inkscape:window-x="0"
   inkscape:cy="9.0490785"
   inkscape:cx="164.84097"
   inkscape:zoom="2.11992"
   showgrid="false"
   id="namedview796"
   inkscape:window-height="900"
   inkscape:window-width="1440"
   inkscape:pageshadow="2"
   inkscape:pageopacity="0"
   guidetolerance="10"
   gridtolerance="10"
   objecttolerance="10"
   borderopacity="1"
   inkscape:document-rotation="0"
   bordercolor="#666666"
   pagecolor="#ffffff" />

<style
   id="style619"
   type="text/css">
	.st0{fill-rule:evenodd;clip-rule:evenodd;fill:#E6E6E6;}
	.st1{filter:url(#Adobe_OpacityMaskFilter);}
	.st2{fill-rule:evenodd;clip-rule:evenodd;fill:#FFFFFF;}
	.st3{mask:url(#mask-2_1_);}
	.st4{fill-rule:evenodd;clip-rule:evenodd;fill:#2C3E50;}
	.st5{filter:url(#Adobe_OpacityMaskFilter_1_);}
	.st6{mask:url(#mask-4_1_);}
	.st7{fill-rule:evenodd;clip-rule:evenodd;fill:#D0C6AC;}
	.st8{filter:url(#Adobe_OpacityMaskFilter_2_);}
	.st9{mask:url(#mask-6_1_);}
	.st10{fill-rule:evenodd;clip-rule:evenodd;fill:#EDB98A;}
	.st11{filter:url(#Adobe_OpacityMaskFilter_3_);}
	.st12{mask:url(#mask-6_2_);fill-rule:evenodd;clip-rule:evenodd;fill-opacity:0.1;}
	.st13{filter:url(#Adobe_OpacityMaskFilter_4_);}
	.st14{mask:url(#react-mask-952_1_);}
	.st15{filter:url(#Adobe_OpacityMaskFilter_5_);}
	.st16{opacity:0.6;mask:url(#react-mask-952_2_);}
	.st17{fill-rule:evenodd;clip-rule:evenodd;fill-opacity:0.16;}
	.st18{fill-rule:evenodd;clip-rule:evenodd;fill-opacity:0.7;}
	.st19{filter:url(#Adobe_OpacityMaskFilter_6_);}
	.st20{mask:url(#react-mask-934_1_);fill-rule:evenodd;clip-rule:evenodd;fill:#FFFFFF;}
	.st21{filter:url(#Adobe_OpacityMaskFilter_7_);}
	.st22{mask:url(#react-mask-934_2_);}
	.st23{fill-rule:evenodd;clip-rule:evenodd;fill:#FF4F6D;}
	.st24{fill-rule:evenodd;clip-rule:evenodd;fill-opacity:0.6;}
	.st25{filter:url(#Adobe_OpacityMaskFilter_8_);}
	.st26{mask:url(#react-mask-925_1_);}
	.st27{fill-rule:evenodd;clip-rule:evenodd;fill:#28354B;}
	.st28{filter:url(#Adobe_OpacityMaskFilter_9_);}
	.st29{mask:url(#react-mask-924_1_);}
	.st30{fill-rule:evenodd;clip-rule:evenodd;fill:#4A312C;}
</style>

<desc
   id="desc621">Created with getavataaars.com</desc>

<g
   transform="translate(1.3116109,1.1242379)"
   id="g793">
	
<g
   transform="matrix(1,0,0,1.0280151,-0.83708,-2.2211213)"
   id="g789"
   style="opacity:1;stop-opacity:1">
			<g
   id="Circle"
   transform="translate(12,40)">
				<g
   id="Circle-Background">
					<circle
   class="st0"
   cx="120"
   cy="120"
   r="120"
   id="circle623" />

				</g>

				<defs
   id="defs629">
					<filter
   id="Adobe_OpacityMaskFilter"
   filterUnits="userSpaceOnUse"
   x="0"
   y="0"
   width="240"
   height="240">
						<feColorMatrix
   type="matrix"
   values="1 0 0 0 0  0 1 0 0 0  0 0 1 0 0  0 0 0 1 0"
   id="feColorMatrix626" />

					</filter>

				</defs>

				<mask
   maskUnits="userSpaceOnUse"
   x="0"
   y="0"
   width="240"
   height="240"
   id="mask-2_1_">
					<g
   class="st1"
   id="g632">
						<circle
   id="path-1_1_"
   class="st2"
   cx="120"
   cy="120"
   r="120" />

					</g>

				</mask>

				<g
   class="st3"
   mask="url(#mask-2_1_)"
   id="g637">
					<rect
   class="st4"
   width="240"
   height="240"
   id="rect635"
   x="0"
   y="0" />

				</g>

			</g>

			<g
   id="Mask">
			</g>

			<defs
   id="defs644">
				<filter
   id="Adobe_OpacityMaskFilter_1_"
   filterUnits="userSpaceOnUse"
   x="-1"
   y="0"
   width="265"
   height="280">
					<feColorMatrix
   type="matrix"
   values="1 0 0 0 0  0 1 0 0 0  0 0 1 0 0  0 0 0 1 0"
   id="feColorMatrix641" />

				</filter>

			</defs>

			<mask
   maskUnits="userSpaceOnUse"
   x="-1"
   y="0"
   width="265"
   height="280"
   id="mask-4_1_">
				<g
   class="st5"
   id="g647">
					<path
   id="path-3_1_"
   class="st2"
   d="m 12,160 c 0,66.3 53.7,120 120,120 66.3,0 120,-53.7 120,-120 h 12 V 0 H 0 v 160 z"
   inkscape:connector-curvature="0" />

				</g>

			</mask>

			<g
   id="Avataaar"
   class="st6"
   mask="url(#mask-4_1_)">
				<g
   id="Body"
   transform="translate(32,36)">
					<g
   id="g652">
						<path
   class="st7"
   d="M 124,144.6 V 163 h 4 v 0 c 39.8,0 72,32.2 72,72 v 9 H 0 v -9 c 0,-39.8 32.2,-72 72,-72 v 0 h 4 V 144.6 C 58.8,136.4 46.4,119.7 44.3,99.9 38.5,99.1 34,94.1 34,88 V 74 C 34,68.1 38.3,63.1 44,62.2 V 56 56 C 44,25.1 69.1,0 100,0 v 0 0 c 30.9,0 56,25.1 56,56 v 6.2 c 5.7,1 10,5.9 10,11.8 v 14 c 0,6.1 -4.5,11.1 -10.3,11.9 -2.1,19.8 -14.5,36.5 -31.7,44.7 z"
   id="path650"
   inkscape:connector-curvature="0" />

					</g>

					<defs
   id="defs657">
						<filter
   id="Adobe_OpacityMaskFilter_2_"
   filterUnits="userSpaceOnUse"
   x="-32"
   y="0"
   width="264"
   height="244">
							<feColorMatrix
   type="matrix"
   values="1 0 0 0 0  0 1 0 0 0  0 0 1 0 0  0 0 0 1 0"
   id="feColorMatrix654" />

						</filter>

					</defs>

					<mask
   maskUnits="userSpaceOnUse"
   x="-32"
   y="0"
   width="264"
   height="244"
   id="mask-6_1_">
						<g
   class="st8"
   id="g660">
							<path
   id="path-5_1_"
   class="st2"
   d="M 124,144.6 V 163 h 4 v 0 c 39.8,0 72,32.2 72,72 v 9 H 0 v -9 c 0,-39.8 32.2,-72 72,-72 v 0 h 4 V 144.6 C 58.8,136.4 46.4,119.7 44.3,99.9 38.5,99.1 34,94.1 34,88 V 74 C 34,68.1 38.3,63.1 44,62.2 V 56 56 C 44,25.1 69.1,0 100,0 v 0 0 c 30.9,0 56,25.1 56,56 v 6.2 c 5.7,1 10,5.9 10,11.8 v 14 c 0,6.1 -4.5,11.1 -10.3,11.9 -2.1,19.8 -14.5,36.5 -31.7,44.7 z"
   inkscape:connector-curvature="0" />

						</g>

					</mask>

					<g
   class="st9"
   mask="url(#mask-6_1_)"
   id="g666">
						<g
   id="Color"
   transform="translate(-32)">
							<rect
   class="st10"
   width="264"
   height="244"
   id="rect663"
   x="0"
   y="0" />

						</g>

					</g>

					<defs
   id="defs671">
						<filter
   id="Adobe_OpacityMaskFilter_3_"
   filterUnits="userSpaceOnUse"
   x="44"
   y="79"
   width="112"
   height="79">
							<feColorMatrix
   type="matrix"
   values="1 0 0 0 0  0 1 0 0 0  0 0 1 0 0  0 0 0 1 0"
   id="feColorMatrix668" />

						</filter>

					</defs>

					<mask
   maskUnits="userSpaceOnUse"
   x="44"
   y="79"
   width="112"
   height="79"
   id="mask-6_2_">
						<g
   class="st11"
   id="g674">
							<path
   id="path-5_2_"
   class="st2"
   d="M 124,144.6 V 163 h 4 v 0 c 39.8,0 72,32.2 72,72 v 9 H 0 v -9 c 0,-39.8 32.2,-72 72,-72 v 0 h 4 V 144.6 C 58.8,136.4 46.4,119.7 44.3,99.9 38.5,99.1 34,94.1 34,88 V 74 C 34,68.1 38.3,63.1 44,62.2 V 56 56 C 44,25.1 69.1,0 100,0 v 0 0 c 30.9,0 56,25.1 56,56 v 6.2 c 5.7,1 10,5.9 10,11.8 v 14 c 0,6.1 -4.5,11.1 -10.3,11.9 -2.1,19.8 -14.5,36.5 -31.7,44.7 z"
   inkscape:connector-curvature="0" />

						</g>

					</mask>

					<path
   id="Neck-Shadow"
   class="st12"
   d="m 156,79 v 23 c 0,30.9 -25.1,56 -56,56 -30.9,0 -56,-25.1 -56,-56 V 79 94 c 0,30.9 25.1,56 56,56 30.9,0 56,-25.1 56,-56 z"
   mask="url(#mask-6_2_)"
   inkscape:connector-curvature="0" />

				</g>

				<g
   transform="translate(0,170)"
   id="g709">
					<g
   id="Clothes">
						<path
   class="st0"
   d="m 166,29.3 c 37,3 66,34 66,71.8 V 110 H 32 v -8.9 C 32,63 61.6,31.8 99,29.2 c 0,0.4 0,0.7 0,1.1 0,11.9 15,21.5 33.5,21.5 18.5,0 33.5,-9.6 33.5,-21.5 0,-0.3 0,-0.7 0,-1 z"
   id="path679"
   inkscape:connector-curvature="0" />

					</g>

					<defs
   id="defs685">
						<filter
   id="Adobe_OpacityMaskFilter_4_"
   filterUnits="userSpaceOnUse"
   x="0"
   y="0"
   width="264"
   height="110">
							<feColorMatrix
   type="matrix"
   values="1 0 0 0 0  0 1 0 0 0  0 0 1 0 0  0 0 0 1 0"
   id="feColorMatrix682" />

						</filter>

					</defs>

					<mask
   maskUnits="userSpaceOnUse"
   x="0"
   y="0"
   width="264"
   height="110"
   id="react-mask-952_1_">
						<g
   class="st13"
   id="g688">
							<path
   id="react-path-951_1_"
   class="st2"
   d="m 166,29.3 c 37,3 66,34 66,71.8 V 110 H 32 v -8.9 C 32,63 61.6,31.8 99,29.2 c 0,0.4 0,0.7 0,1.1 0,11.9 15,21.5 33.5,21.5 18.5,0 33.5,-9.6 33.5,-21.5 0,-0.3 0,-0.7 0,-1 z"
   inkscape:connector-curvature="0" />

						</g>

					</mask>

					<g
   class="st14"
   mask="url(#react-mask-952_1_)"
   id="g693">
						<rect
   class="st2"
   width="264"
   height="110"
   id="rect691"
   x="0"
   y="0" />

					</g>

					<defs
   id="defs698">
						<filter
   id="Adobe_OpacityMaskFilter_5_"
   filterUnits="userSpaceOnUse"
   x="92.900002"
   y="4.9000001"
   width="79.300003"
   height="53.799999">
							<feColorMatrix
   type="matrix"
   values="1 0 0 0 0  0 1 0 0 0  0 0 1 0 0  0 0 0 1 0"
   id="feColorMatrix695" />

						</filter>

					</defs>

					<mask
   maskUnits="userSpaceOnUse"
   x="92.9"
   y="4.9"
   width="79.3"
   height="53.8"
   id="react-mask-952_2_">
						<g
   class="st15"
   id="g701">
							<path
   id="react-path-951_2_"
   class="st2"
   d="m 166,29.3 c 37,3 66,34 66,71.8 V 110 H 32 v -8.9 C 32,63 61.6,31.8 99,29.2 c 0,0.4 0,0.7 0,1.1 0,11.9 15,21.5 33.5,21.5 18.5,0 33.5,-9.6 33.5,-21.5 0,-0.3 0,-0.7 0,-1 z"
   inkscape:connector-curvature="0" />

						</g>

					</mask>

					<g
   id="Shadowy"
   class="st16"
   mask="url(#react-mask-952_2_)">
						<g
   transform="translate(92,4)"
   id="g706">
							<ellipse
   class="st17"
   cx="40.5"
   cy="27.799999"
   rx="39.599998"
   ry="26.9"
   id="ellipse704" />

						</g>

					</g>

				</g>

				<g
   id="Face"
   transform="translate(76,82)">
					<g
   transform="translate(2,52)"
   id="g740">
						<g
   id="Mouth">
							<path
   class="st18"
   d="M 35.1,15.1 C 36.2,24.6 44.2,32 54,32 c 9.8,0 17.9,-7.4 18.9,-17 0.1,-0.8 -0.8,-2 -1.8,-2 -14.9,0 -26.3,0 -34,0 -1.1,0 -2.1,1.2 -2,2.1 z"
   id="path711"
   inkscape:connector-curvature="0" />

						</g>

						<defs
   id="defs717">
							<filter
   id="Adobe_OpacityMaskFilter_6_"
   filterUnits="userSpaceOnUse"
   x="39"
   y="2"
   width="31"
   height="16">
								<feColorMatrix
   type="matrix"
   values="1 0 0 0 0  0 1 0 0 0  0 0 1 0 0  0 0 0 1 0"
   id="feColorMatrix714" />

							</filter>

						</defs>

						<mask
   maskUnits="userSpaceOnUse"
   x="39"
   y="2"
   width="31"
   height="16"
   id="react-mask-934_1_">
							<g
   class="st19"
   id="g720">
								<path
   id="react-path-933_1_"
   class="st2"
   d="M 35.1,15.1 C 36.2,24.6 44.2,32 54,32 c 9.8,0 17.9,-7.4 18.9,-17 0.1,-0.8 -0.8,-2 -1.8,-2 -14.9,0 -26.3,0 -34,0 -1.1,0 -2.1,1.2 -2,2.1 z"
   inkscape:connector-curvature="0" />

							</g>

						</mask>

						<path
   id="Teeth"
   class="st20"
   d="m 44,2 h 21 c 2.8,0 5,2.2 5,5 v 6 c 0,2.8 -2.2,5 -5,5 H 44 c -2.8,0 -5,-2.2 -5,-5 V 7 c 0,-2.8 2.2,-5 5,-5 z"
   mask="url(#react-mask-934_1_)"
   inkscape:connector-curvature="0" />

						<defs
   id="defs727">
							<filter
   id="Adobe_OpacityMaskFilter_7_"
   filterUnits="userSpaceOnUse"
   x="38"
   y="24"
   width="32"
   height="22">
								<feColorMatrix
   type="matrix"
   values="1 0 0 0 0  0 1 0 0 0  0 0 1 0 0  0 0 0 1 0"
   id="feColorMatrix724" />

							</filter>

						</defs>

						<mask
   maskUnits="userSpaceOnUse"
   x="38"
   y="24"
   width="32"
   height="22"
   id="react-mask-934_2_">
							<g
   class="st21"
   id="g730">
								<path
   id="react-path-933_2_"
   class="st2"
   d="M 35.1,15.1 C 36.2,24.6 44.2,32 54,32 c 9.8,0 17.9,-7.4 18.9,-17 0.1,-0.8 -0.8,-2 -1.8,-2 -14.9,0 -26.3,0 -34,0 -1.1,0 -2.1,1.2 -2,2.1 z"
   inkscape:connector-curvature="0" />

							</g>

						</mask>

						<g
   id="Tongue"
   class="st22"
   mask="url(#react-mask-934_2_)">
							<g
   transform="translate(38,24)"
   id="g737">
								<circle
   class="st23"
   cx="11"
   cy="11"
   r="11"
   id="circle733" />

								<circle
   class="st23"
   cx="21"
   cy="11"
   r="11"
   id="circle735" />

							</g>

						</g>

					</g>

					<g
   transform="translate(28,40)"
   id="g743">
						<path
   id="Nose"
   class="st17"
   d="m 16,8 c 0,4.4 5.4,8 12,8 v 0 c 6.6,0 12,-3.6 12,-8"
   inkscape:connector-curvature="0" />

					</g>

					<g
   transform="translate(0,8)"
   id="g748">
						<path
   id="Squint"
   class="st24"
   d="M 16.2,22.4 C 18,18.6 22.2,16 27,16 c 4.8,0 9,2.6 10.8,6.4 0.6,1.1 -0.2,2 -1,1.4 -2.5,-2.1 -5.9,-3.4 -9.8,-3.4 -3.7,0 -7.1,1.2 -9.6,3.2 -0.9,0.7 -1.8,0 -1.2,-1.2 z"
   inkscape:connector-curvature="0" />

						<path
   class="st24"
   d="M 74.2,22.4 C 76,18.6 80.2,16 85,16 c 4.8,0 9,2.6 10.8,6.4 0.6,1.1 -0.2,2 -1,1.4 -2.5,-2.1 -5.9,-3.4 -9.8,-3.4 -3.7,0 -7.1,1.2 -9.6,3.2 -0.9,0.7 -1.8,0 -1.2,-1.2 z"
   id="path746"
   inkscape:connector-curvature="0" />

					</g>

					<g
   id="g753">
						<path
   id="Eyebrow"
   class="st24"
   d="m 26.5,6.1 c -5.8,0.3 -15.2,4.5 -15,10.3 0,0.2 0.3,0.3 0.4,0.1 2.8,-3 22.3,-5.9 29.2,-4.4 0.6,0.1 1.1,-0.5 0.7,-0.9 C 38.5,7.5 31.7,5.9 26.5,6.1"
   inkscape:connector-curvature="0" />

						<path
   class="st24"
   d="m 86.5,6.1 c 5.8,0.3 15.2,4.5 15,10.3 0,0.2 -0.3,0.3 -0.4,0.1 -2.8,-3 -22.3,-5.9 -29.2,-4.4 -0.6,0.1 -1.1,-0.5 -0.7,-0.9 3.3,-3.7 10.1,-5.3 15.3,-5.1"
   id="path751"
   inkscape:connector-curvature="0" />

					</g>

				</g>

				<g
   id="Top">
					<defs
   id="defs759">
						<filter
   id="Adobe_OpacityMaskFilter_8_"
   filterUnits="userSpaceOnUse"
   x="-1"
   y="0"
   width="264"
   height="280">
							<feColorMatrix
   type="matrix"
   values="1 0 0 0 0  0 1 0 0 0  0 0 1 0 0  0 0 0 1 0"
   id="feColorMatrix756" />

						</filter>

					</defs>

					<mask
   maskUnits="userSpaceOnUse"
   x="-1"
   y="0"
   width="264"
   height="280"
   id="react-mask-925_1_">
						<g
   class="st25"
   id="g762">
							<rect
   id="react-path-927_1_"
   class="st2"
   width="264"
   height="280"
   x="0"
   y="0" />

						</g>

					</mask>

					<g
   class="st26"
   mask="url(#react-mask-925_1_)"
   id="g785">
						<g
   transform="translate(-1)"
   id="g783">
							<g
   id="Short-Hair">
								<path
   class="st27"
   d="m 183.7,38.9 c 5.4,-5 6.7,-15 3.6,-21.5 -3.8,-8 -11.4,-9 -18.7,-5.5 -6.9,3.3 -13.1,4.4 -20.6,2.8 C 140.7,13.2 133.9,10.4 126.4,10 114,9.3 102,13.9 93.6,23.1 c -1.6,1.8 -2.9,3.8 -4.1,5.8 -1,1.6 -2.1,3.4 -2.5,5.3 -0.2,0.9 0.2,3.1 -0.3,3.8 -0.5,0.8 -2.3,1.5 -3.1,2.1 -1.6,1.2 -2.9,2.5 -4.2,4 -2.7,3.2 -4.1,6.6 -5.4,10.6 -4.1,13.2 -4.5,29 0.9,42 0.7,1.7 2.9,5.4 4.2,1.6 0.3,-0.7 -0.3,-3.2 -0.3,-3.9 0,-2.7 1.5,-20.7 8,-30.8 2.1,-3.3 12,-15.6 14,-15.7 1.1,1.7 11.9,12.5 39.9,11.2 12.7,-0.6 22.4,-6.3 24.7,-8.7 1,5.5 13,13.8 14.8,17.2 5.3,9.8 6.4,30.3 8.4,30.3 2,0 3.5,-5.2 3.9,-6.2 3.1,-7.4 3.6,-16.6 3.3,-24.6 C 195.5,57 191.3,45.9 183.7,38.9 Z"
   id="path765"
   inkscape:connector-curvature="0" />

							</g>

							<defs
   id="defs771">
								<filter
   id="Adobe_OpacityMaskFilter_9_"
   filterUnits="userSpaceOnUse"
   x="0"
   y="0"
   width="264"
   height="280">
									<feColorMatrix
   type="matrix"
   values="1 0 0 0 0  0 1 0 0 0  0 0 1 0 0  0 0 0 1 0"
   id="feColorMatrix768" />

								</filter>

							</defs>

							<mask
   maskUnits="userSpaceOnUse"
   x="0"
   y="0"
   width="264"
   height="280"
   id="react-mask-924_1_">
								<g
   class="st28"
   id="g774">
									<path
   id="react-path-926_1_"
   class="st2"
   d="m 183.7,38.9 c 5.4,-5 6.7,-15 3.6,-21.5 -3.8,-8 -11.4,-9 -18.7,-5.5 -6.9,3.3 -13.1,4.4 -20.6,2.8 C 140.7,13.2 133.9,10.4 126.4,10 114,9.3 102,13.9 93.6,23.1 c -1.6,1.8 -2.9,3.8 -4.1,5.8 -1,1.6 -2.1,3.4 -2.5,5.3 -0.2,0.9 0.2,3.1 -0.3,3.8 -0.5,0.8 -2.3,1.5 -3.1,2.1 -1.6,1.2 -2.9,2.5 -4.2,4 -2.7,3.2 -4.1,6.6 -5.4,10.6 -4.1,13.2 -4.5,29 0.9,42 0.7,1.7 2.9,5.4 4.2,1.6 0.3,-0.7 -0.3,-3.2 -0.3,-3.9 0,-2.7 1.5,-20.7 8,-30.8 2.1,-3.3 12,-15.6 14,-15.7 1.1,1.7 11.9,12.5 39.9,11.2 12.7,-0.6 22.4,-6.3 24.7,-8.7 1,5.5 13,13.8 14.8,17.2 5.3,9.8 6.4,30.3 8.4,30.3 2,0 3.5,-5.2 3.9,-6.2 3.1,-7.4 3.6,-16.6 3.3,-24.6 C 195.5,57 191.3,45.9 183.7,38.9 Z"
   inkscape:connector-curvature="0" />

								</g>

							</mask>

							<g
   class="st29"
   mask="url(#react-mask-924_1_)"
   id="g781">
								<g
   id="g779">
									<rect
   class="st30"
   width="264"
   height="280"
   id="rect777"
   x="0"
   y="0" />

								</g>

							</g>

						</g>

					</g>

				</g>

			</g>

		</g>
<ellipse
   transform="matrix(0.99992157,0.0125244,-0.01423425,0.99989869,0,0)"
   ry="123.59109"
   rx="119.6735"
   cy="160.8102"
   cx="133.66435"
   id="path1901"
   style="opacity:0.49;fill:none;fill-opacity:1;stroke:url(#linearGradient3906);stroke-width:1.28385;stroke-opacity:1" />
<path
   inkscape:connector-curvature="0"
   id="path3966"
   d="m 149.38259,46.452226 c 0.0803,1.016195 -0.23412,2.013068 -0.53099,2.973529 -0.5257,1.700802 -1.05171,3.40156 -1.59296,5.097478 -0.0108,0.03372 -0.025,-0.08117 0,-0.106197 0.025,-0.02503 0.0812,0.02503 0.1062,0 0.0491,-0.04909 -0.0321,-0.254473 0,-0.318593 0.0767,-0.153327 0.13573,-0.271463 0.21239,-0.42479 0.081,-0.161996 0.11385,-0.489364 0.2124,-0.637184 0.28883,-0.433243 0.66421,-0.837024 0.95578,-1.27437 0.2313,-0.346959 0.55059,-0.762993 0.84958,-1.061975 0.056,-0.05597 0.26836,-0.05023 0.21239,-0.106197 -0.19457,-0.19457 -1.01938,0.138 -1.16817,0.212395 -0.0896,0.04478 -0.28319,0.283193 -0.2124,0.212395 0.29309,-0.293087 2.77304,-2.336344 3.07973,-2.336344 0.11194,0 -0.21239,0.0708 -0.31859,0.106197 -0.23816,0.04399 -0.41191,0.2435 -0.63719,0.318592 -0.68576,0.228588 -1.0376,0.506616 -1.59296,1.061975 -0.18284,0.182844 -0.41362,0.488142 -0.63718,0.637185 -0.0659,0.04391 -0.15643,0.05023 -0.2124,0.106197 -0.17521,0.175217 0.0351,0.498079 0,0.743383 -0.0649,0.45407 -0.22903,0.932763 -0.31859,1.380567 -0.0373,0.186419 -0.28464,0.747711 -0.31859,0.849579 -0.0112,0.03358 0,0.141597 0,0.106198 0,-1.009191 1.25611,-3.318895 1.69916,-4.141701 0.18763,-0.348468 0.35399,-0.707983 0.53098,-1.061975 0.0448,-0.08955 0.2124,-0.312519 0.2124,-0.212395 0,0.234504 -1.18368,1.929617 -1.27437,2.123949 -0.0947,0.20288 -0.12147,0.432598 -0.2124,0.637185 -0.16766,0.377241 -0.4367,0.701104 -0.63718,1.061975 -0.0976,0.175726 -0.25229,0.42479 -0.2124,0.42479 0.0526,0 0.33506,-1.079939 0.42479,-1.27437 0.29022,-0.628804 0.70706,-1.213824 1.06198,-1.805357 0.0981,-0.163569 0.23734,-0.368485 0.31859,-0.530987 0.0158,-0.03166 0.01,-0.140235 0,-0.106198 -0.27968,0.978886 -0.55995,1.412752 -0.95578,2.336345 -0.0312,0.07276 -0.16216,0.268366 -0.10619,0.212395 0.33642,-0.336428 0.57209,-0.779689 0.84958,-1.168172 0.16933,-0.237063 0.63927,-0.651803 0.63718,-0.637185 -0.0636,0.444903 -0.3702,1.164199 -0.53099,1.592962 -0.0556,0.14823 -0.21239,0.583099 -0.21239,0.42479 0,-0.618861 0.64216,-1.267725 0.95578,-1.805357 0.20801,-0.356587 0.40819,-0.718487 0.63718,-1.061975 0.0439,-0.06586 0.2124,-0.185352 0.2124,-0.106197 0,0.06215 -0.69427,2.050271 -0.74339,2.123949 -0.14159,0.212395 -0.10619,-0.247794 -0.10619,0.106197"
   style="fill:none;stroke:#4b312c;stroke-width:1px;stroke-linecap:butt;stroke-linejoin:miter;stroke-opacity:0.99215686" />
<path
   inkscape:transform-center-y="0.017569496"
   inkscape:transform-center-x="0.10271743"
   inkscape:connector-curvature="0"
   id="path3968"
   d="m 77.753174,52.953421 c 1.295315,-0.15069 2.564552,-0.273337 3.885923,-0.452065 1.098096,-0.148519 2.042927,-0.09514 3.226457,-0.381245 0.31054,-0.07514 4.39445,-4.175381 4.75844,-4.649975 0.9721,-1.267419 2.50949,-3.348674 2.75825,-4.122192 0.22719,-0.706432 -0.52392,-0.524734 -0.89915,-0.668666 -1.34229,-0.515255 -2.63492,-0.871327 -8.224619,4.29179 -0.953417,0.88062 -5.830865,5.234409 -6.611666,6.205499 -0.52006,0.646827 -0.09444,0.743997 -0.06552,0.946143 0.08532,0.596324 -0.38017,0.660704 0.0053,0.973334 0.436408,0.353974 1.298795,0.590878 2.147242,0.499841 0.194526,-0.02087 0.527974,-0.196198 0.823007,-0.331868 1.834206,-0.843099 3.299776,-1.436324 5.990006,-3.5301 0.40163,-0.312583 0.82657,-0.774681 1.24277,-1.142123 0.99834,-0.881443 2.2413,-1.956386 3.18863,-2.985817 0.69152,-0.751434 0.78229,-2.488615 0.76334,-2.62104 -0.0373,-0.259703 -0.14504,-0.860755 -0.68661,-0.587129 -2.20273,1.112903 -5.35314,3.59235 -8.355677,6.184093 -0.07755,0.06697 -4.001314,3.441456 -4.431383,4.127928 -0.335901,0.536158 2.185448,-0.127218 2.801373,-0.544295"
   style="opacity:1;fill:none;stroke:#4b312c;stroke-width:7.1306;stroke-linecap:butt;stroke-linejoin:miter;stroke-miterlimit:4;stroke-dasharray:none;stroke-opacity:1" />
<path
   inkscape:connector-curvature="0"
   id="path4069"
   d="m 150.48723,33.89553 c -0.10216,0.660004 -0.49111,1.333791 -0.69761,1.953294 -0.22565,0.676956 -0.32313,1.387954 -0.55808,2.092815 -0.12691,0.380715 -0.41512,0.874449 -0.55809,1.255689 -0.36208,0.965563 -0.59166,1.948098 -0.83712,2.92994 -0.0882,0.352604 -0.2941,0.74278 -0.41857,1.116168 -0.0418,0.125569 0.0419,0.292994 0,0.418563 -0.10058,0.301753 -0.13952,0.387481 -0.13952,0.697605 0,0.04651 0,0.186028 0,0.139521 0,-0.09301 0,-0.186028 0,-0.279042"
   style="fill:none;stroke:#4b312c;stroke-width:1px;stroke-linecap:butt;stroke-linejoin:miter;stroke-opacity:0.99215686" />
<path
   inkscape:connector-curvature="0"
   id="path4071"
   d="M 142.67405,48.684755 154.81238,27.617086"
   style="fill:none;stroke:#4b312c;stroke-width:1px;stroke-linecap:butt;stroke-linejoin:miter;stroke-opacity:0" />
<path
   inkscape:connector-curvature="0"
   id="path4073"
   d="m 154.9519,26.640439 1.53473,19.253896"
   style="fill:none;stroke:#4b312c;stroke-width:1px;stroke-linecap:butt;stroke-linejoin:miter;stroke-opacity:0" />
<path
   inkscape:connector-curvature="0"
   id="path4075"
   d="M 174.9034,29.151816 156.06806,28.872774"
   style="fill:none;stroke:#4b312c;stroke-width:1px;stroke-linecap:butt;stroke-linejoin:miter;stroke-opacity:0" />
<path
   inkscape:connector-curvature="0"
   id="path4077"
   d="m 157.84573,42.762712 -26.69767,-7.91097"
   style="fill:none;stroke:#4b312c;stroke-width:2.57368px;stroke-linecap:butt;stroke-linejoin:miter;stroke-opacity:0" />
<path
   style="opacity:1;fill:none;stroke:#4b312c;stroke-width:17.4966;stroke-linecap:butt;stroke-linejoin:miter;stroke-miterlimit:4;stroke-dasharray:none;stroke-opacity:1"
   d="m 107.5122,33.875693 c 2.44374,1.31865 4.74391,2.639645 7.33111,3.955952 2.14998,1.093897 3.31628,2.24435 6.1092,3.277789 0.73287,0.27114 22.11862,0.241688 24.43659,0.113028 6.19019,-0.343576 16.2701,-0.975663 19.54935,-1.582382 2.99485,-0.554074 1.22188,-1.209794 1.22188,-1.808435 0,-2.141683 -0.52579,-4.042785 -28.10222,-4.521089 -4.70346,-0.08158 -28.19445,-0.673897 -32.98953,-0.452108 -3.19385,0.147725 -2.94442,0.750434 -3.66548,1.017245 -2.12695,0.787034 -3.043705,0.324969 -3.665565,1.130271 -0.704139,0.911733 -0.349837,2.179144 1.221844,3.051736 0.360137,0.20013 1.504801,0.381776 2.443721,0.565136 5.83702,1.139911 10.19719,2.14369 21.99302,2.825681 1.76099,0.101822 4.12006,0.05782 6.10921,0.113026 4.77159,0.132422 10.62756,0.323302 15.88377,0.226055 3.83689,-0.07099 10.52423,-1.972751 10.99653,-2.147518 0.92619,-0.342875 3.03846,-1.161275 1.22188,-1.469353 -7.38849,-1.253041 -21.306,-2.019866 -35.43328,-2.486599 -0.3649,-0.01205 -18.77976,-0.63632 -21.99298,-0.339081 -2.509643,0.23215 3.64362,2.37155 6.10922,2.599625"
   id="path3968-9"
   inkscape:connector-curvature="0" />
<path
   style="opacity:1;fill:none;stroke:#4b312c;stroke-width:8.31664;stroke-linecap:butt;stroke-linejoin:miter;stroke-miterlimit:4;stroke-dasharray:none;stroke-opacity:1"
   d="m 173.16439,47.017527 c 0.20507,1.196259 0.36943,2.370034 0.61518,3.588755 0.20418,1.012769 0.11504,1.895864 0.51939,2.97933 0.1061,0.284275 6.05245,3.82252 6.742,4.130876 1.84143,0.823449 4.86603,2.12083 5.99394,2.302636 1.03009,0.166059 0.77331,-0.52154 0.98814,-0.880149 0.76856,-1.282956 1.30492,-2.509183 -6.17755,-7.380983 -1.27623,-0.830935 -7.58378,-5.091701 -8.99429,-5.756141 -0.93949,-0.442557 -1.08656,-0.04004 -1.38242,-9.6e-5 -0.8728,0.117802 -0.96144,-0.311426 -1.42303,0.06759 -0.52263,0.429083 -0.87921,1.247165 -0.75603,2.031264 0.0282,0.179783 0.28067,0.478914 0.47549,0.744883 1.21104,1.653394 2.06101,2.979677 5.0903,5.349558 0.45226,0.35381 1.1228,0.719693 1.65511,1.083521 1.27687,0.872709 2.83375,1.960756 4.32754,2.776464 1.09043,0.595451 3.62904,0.568152 3.82284,0.54199 0.38012,-0.05139 1.26008,-0.190439 0.86644,-0.677037 -1.60108,-1.979143 -5.18882,-4.752622 -8.94245,-7.381206 -0.097,-0.06789 -4.98413,-3.503767 -5.98265,-3.859983 -0.77988,-0.278221 0.16026,2.026496 0.76275,2.573083"
   id="path3968-4"
   inkscape:connector-curvature="0" />
</g>

</svg>
